<?xml version="1.0" encoding="UTF-8" standalone="no"?>
<svg xmlns:rdf="http://www.w3.org/1999/02/22-rdf-syntax-ns#" xmlns="http://www.w3.org/2000/svg" height="517.68mm" width="404.79mm" version="1.1" xmlns:cc="http://creativecommons.org/ns#" xmlns:xlink="http://www.w3.org/1999/xlink" viewBox="0 0 1434.3 1834.3001" xmlns:dc="http://purl.org/dc/elements/1.1/">
<defs>
<linearGradient id="b" y2="3764.9" gradientUnits="userSpaceOnUse" x2="2112.5" y1="1973.3" x1="700">
<stop stop-color="#f5b5a9" offset="0"/>
<stop stop-color="#ffd664" offset="1"/>
</linearGradient>
</defs>
<g transform="translate(-682.85 -1935.2)">
<path stroke-linejoin="round" d="m687.5 1939.9v1825h1425v-1825zm137.5 137.5h1150v1550h-1150z" stroke="#980000" stroke-linecap="round" stroke-width="9.3" fill="url(#b)"/>
<path id="a" style="color-rendering:auto;text-decoration-color:#000000;color:#000000;isolation:auto;mix-blend-mode:normal;shape-rendering:auto;solid-color:#000000;block-progression:tb;text-decoration-line:none;text-decoration-style:solid;image-rendering:auto;white-space:normal;text-indent:0;text-transform:none" d="m929.1 1952.4-25.508 37.381-4.996-17.944-5.5672 42.354c-0.27694 0.4802-0.56613 0.9758-0.86527 1.482-2.4071 4.0742-5.5137 8.8393-7.9052 11.315-2.4935 2.5815-5.3079 4.8709-8.3133 6.9099-1.0395 0.552-1.9886 1.0718-2.7129 1.4809 0.56924-0.8266 1.0635-1.6763 1.4226-2.5341 0.74885-1.7889 0.6322-3.7443 0.50117-5.4109-0.0632-0.8038-0.15697-1.5253-0.2373-2.0667l5.2393-32.684-5.4615 12.013-8.5066-35.157 1.2221 36.49-11.537-8.9035 15.674 28.716c0.072 0.4768 0.15786 1.1286 0.21677 1.8778 0.11336 1.442-0.003 3.1791-0.23187 3.7256-0.61087 1.4592-2.5296 3.8518-4.275 5.686-1.7455 1.8342-3.292 3.1962-3.292 3.1962a1.7006 1.7605 0 0 0 -0.17812 0.185c-5.9377 2.4734-12.382 3.9168-18.838 5.1953-2.0779 0.4114-4.6512 0.788-7.4022 1.1295 1.1109-0.826 2.1437-1.7487 2.9146-2.7936 2.2703-3.0772 3.2257-6.9562 3.4436-10.578 0.34683-5.7673-0.86531-11.709-3.2576-16.888-1.92-4.1564-5.8428-8.9479-9.3187-12.86-3.4759-3.9124-6.514-6.8743-6.514-6.8743a1.7314 1.7925 0 0 0 -1.2578 -0.5045 1.7314 1.7925 0 0 0 -1.1165 3.1143s2.9546 2.8812 6.3395 6.6912 7.1909 8.6196 8.7433 11.98c2.1416 4.6363 3.2317 10.027 2.9255 15.118-0.18719 3.1125-1.0537 6.3403-2.7395 8.6252-0.78662 1.0662-3.0122 2.7104-4.973 3.8832-1.9609 1.1728-3.6495 1.9778-3.6495 1.9778a1.7314 1.7925 0 0 0 -0.0308 0.016c-7.8008 0.7242-14.797 1.1346-14.797 1.1346a1.7005 1.7605 0 1 0 0.18718 3.5151s20.671-1.1562 31.141-3.2293c7.3974-1.4649 14.998-3.1637 22.035-6.5325 3.4401-1.6469 6.8439-3.5295 10.07-5.7078 0.20639-0.109 0.38681-0.2089 0.6008-0.3201 2.7751-1.4413 6.191-3.0024 8.1751-3.4593 2.2154-0.5101 6.0797-0.5491 9.271-0.4038 0.0333 0 0.0605 0.01 0.0936 0.01l29.201 12.649-10.039-8.2627 35.006-0.4932-34.585-7.153 11.021-9.5786-30.948 9.3004c-1.5455-0.065-3.2022-0.1032-4.8233-0.052-1.4212 0.045-2.8087 0.1587-4.0613 0.3775 0.0186-0.019 0.0381-0.038 0.0568-0.057 2.8631-2.964 5.9398-7.8007 8.4021-11.968 0.3382-0.5724 0.6601-1.1273 0.97033-1.6666l30.057-29.377-14.251 7.7032 17.258-41.77zm-118.53 21.935a4.6373 4.8008 0 0 0 -4.6373 4.8008 4.6373 4.8008 0 0 0 4.6373 4.8008 4.6373 4.8008 0 0 0 4.6373 -4.8008 4.6373 4.8008 0 0 0 -4.6373 -4.8008zm14.366 1.2927a4.6373 4.8008 0 0 0 -4.6373 4.8008 4.6373 4.8008 0 0 0 4.6373 4.8008 4.6373 4.8008 0 0 0 4.6373 -4.8008 4.6373 4.8008 0 0 0 -4.6373 -4.8008zm-8.4323 9.3759a4.6373 4.8008 0 0 0 -4.6373 4.8008 4.6373 4.8008 0 0 0 4.6373 4.8008 4.6373 4.8008 0 0 0 4.6373 -4.8008 4.6373 4.8008 0 0 0 -4.6373 -4.8008zm-11.867 2.2629a4.6373 4.8008 0 0 0 -4.6373 4.8008 4.6373 4.8008 0 0 0 4.6373 4.8008 4.6373 4.8008 0 0 0 4.6373 -4.8008 4.6373 4.8008 0 0 0 -4.6373 -4.8008zm24.34 0.3038a4.6373 4.8008 0 0 0 -4.6373 4.8008 4.6373 4.8008 0 0 0 4.6373 4.8008 4.6373 4.8008 0 0 0 4.6373 -4.8008 4.6373 4.8008 0 0 0 -4.6373 -4.8008zm-13.079 10.022a4.6373 4.8008 0 0 0 -4.6373 4.8009 4.6373 4.8008 0 0 0 4.6373 4.8008 4.6373 4.8008 0 0 0 4.6373 -4.8008 4.6373 4.8008 0 0 0 -4.6373 -4.8009z" fill-rule="evenodd" fill="#980000"/>
<use xlink:href="#a" transform="matrix(0 1 -1 0 4052.4 1152.4)" height="100%" width="100%" y="0" x="0"/>
<use xlink:href="#a" transform="matrix(0 1 -1 0 4052.4 1302.4)" height="100%" width="100%" y="0" x="0"/>
<use xlink:href="#a" transform="matrix(0 1 -1 0 4052.4 1452.4)" height="100%" width="100%" y="0" x="0"/>
<use xlink:href="#a" transform="matrix(0 1 -1 0 4052.4 1602.4)" height="100%" width="100%" y="0" x="0"/>
<use xlink:href="#a" transform="matrix(0 1 -1 0 4052.4 1752.4)" height="100%" width="100%" y="0" x="0"/>
<use xlink:href="#a" transform="matrix(0 1 -1 0 4052.4 1902.4)" height="100%" width="100%" y="0" x="0"/>
<use xlink:href="#a" transform="matrix(0 1 -1 0 4052.4 2052.4)" height="100%" width="100%" y="0" x="0"/>
<use xlink:href="#a" transform="matrix(0 1 -1 0 4052.4 2202.4)" height="100%" width="100%" y="0" x="0"/>
<use xlink:href="#a" transform="matrix(0 1 -1 0 4052.4 2352.4)" height="100%" width="100%" y="0" x="0"/>
<use xlink:href="#a" transform="matrix(0 1 -1 0 4052.4 2502.4)" height="100%" width="100%" y="0" x="0"/>
<use xlink:href="#a" transform="matrix(0 1 -1 0 4052.4 2652.4)" height="100%" width="100%" y="0" x="0"/>
<use xlink:href="#a" transform="matrix(0 1 -1 0 4052.4 2802.4)" height="100%" width="100%" y="0" x="0"/>
<use xlink:href="#a" transform="translate(150)" height="100%" width="100%" y="0" x="0"/>
<use xlink:href="#a" transform="translate(450)" height="100%" width="100%" y="0" x="0"/>
<use xlink:href="#a" transform="translate(300)" height="100%" width="100%" y="0" x="0"/>
<use xlink:href="#a" transform="translate(750)" height="100%" width="100%" y="0" x="0"/>
<use xlink:href="#a" transform="translate(600)" height="100%" width="100%" y="0" x="0"/>
<use xlink:href="#a" transform="translate(900)" height="100%" width="100%" y="0" x="0"/>
<use xlink:href="#a" transform="translate(1050)" height="100%" width="100%" y="0" x="0"/>
<use xlink:href="#a" transform="matrix(0 -1 1 0 -1252.4 4552.4)" height="100%" width="100%" y="0" x="0"/>
<use xlink:href="#a" transform="matrix(0 -1 1 0 -1252.4 4402.4)" height="100%" width="100%" y="0" x="0"/>
<use xlink:href="#a" transform="matrix(0 -1 1 0 -1252.4 4252.4)" height="100%" width="100%" y="0" x="0"/>
<use xlink:href="#a" transform="matrix(0 -1 1 0 -1252.4 4102.4)" height="100%" width="100%" y="0" x="0"/>
<use xlink:href="#a" transform="matrix(0 -1 1 0 -1252.4 3952.4)" height="100%" width="100%" y="0" x="0"/>
<use xlink:href="#a" transform="matrix(0 -1 1 0 -1252.4 3802.4)" height="100%" width="100%" y="0" x="0"/>
<use xlink:href="#a" transform="matrix(0 -1 1 0 -1252.4 3652.4)" height="100%" width="100%" y="0" x="0"/>
<use xlink:href="#a" transform="matrix(0 -1 1 0 -1252.4 3502.4)" height="100%" width="100%" y="0" x="0"/>
<use xlink:href="#a" transform="matrix(0 -1 1 0 -1252.4 3352.4)" height="100%" width="100%" y="0" x="0"/>
<use xlink:href="#a" transform="matrix(0 -1 1 0 -1252.4 3202.4)" height="100%" width="100%" y="0" x="0"/>
<use xlink:href="#a" transform="matrix(0 -1 1 0 -1252.4 3052.4)" height="100%" width="100%" y="0" x="0"/>
<use xlink:href="#a" transform="matrix(0 -1 1 0 -1252.4 2902.4)" height="100%" width="100%" y="0" x="0"/>
<use xlink:href="#a" transform="matrix(-1 0 0 -1 2800 5704.7)" height="100%" width="100%" y="0" x="0"/>
<use xlink:href="#a" transform="matrix(-1 0 0 -1 2650 5704.7)" height="100%" width="100%" y="0" x="0"/>
<use xlink:href="#a" transform="matrix(-1 0 0 -1 2500 5704.7)" height="100%" width="100%" y="0" x="0"/>
<use xlink:href="#a" transform="matrix(-1 0 0 -1 2350 5704.7)" height="100%" width="100%" y="0" x="0"/>
<use xlink:href="#a" transform="matrix(-1 0 0 -1 2200 5704.7)" height="100%" width="100%" y="0" x="0"/>
<use xlink:href="#a" transform="matrix(-1 0 0 -1 2050 5704.7)" height="100%" width="100%" y="0" x="0"/>
<use xlink:href="#a" transform="matrix(-1 0 0 -1 1900 5704.7)" height="100%" width="100%" y="0" x="0"/>
<use xlink:href="#a" transform="matrix(-1 0 0 -1 1750 5704.7)" height="100%" width="100%" y="0" x="0"/>
</g>
</svg>
